<?xml version="1.0" encoding="utf-8"?>
<!-- Generator: Adobe Illustrator 23.0.1, SVG Export Plug-In . SVG Version: 6.00 Build 0)  -->
<svg version="1.1" id="Layer_1" xmlns="http://www.w3.org/2000/svg" xmlns:xlink="http://www.w3.org/1999/xlink" x="0px" y="0px"
	 viewBox="-4101.294 353.021 4247.65 4297.359" enable-background="new -4101.294 353.021 4247.65 4297.359" xml:space="preserve">
<g>
	<path fill="#FFFFFF" d="M-1445.456,1501.422v32.866h40.688v132.219h33.313v-132.219h40.587v-32.866H-1445.456z M-1316.367,1501.372
		v165.136h33.087v-66.135h55.288v66.135h33.112v-165.136h-33.112v66.135h-55.288v-66.135H-1316.367z"/>
	<path fill="#FFFFFF" d="M-2788.764,3218.34v337.617h66.25v-136.681l95.448,131.316l95.324-131.316v136.681h66.25V3218.34
		l-161.574,221.544L-2788.764,3218.34z M-2436.92,3555.957h71.718l22.276-49.939h113.008l22.301,49.939h71.919l-150.687-336.414
		L-2436.92,3555.957z M-2316.712,3447.505l30.479-69.77l30.127,69.77H-2316.712z M-2106.976,3555.957h66.251v-145.832
		l95.098,145.832h81l-76.735-119.483c18.738-7.345,27.969-14.266,39.483-30.459c13.923-19.63,20.896-40.588,20.896-62.777v-8.598
		c0-36.451-11.865-54.753-31.935-74.884c-19.917-19.68-49.617-33.519-86.518-33.519h-107.766L-2106.976,3555.957z
		 M-1993.064,3383.101h-22.226v-0.202h-25.662v-91.003h37.402c16.08,0,32.485,4.737,41.089,13.137
		c8.806,9.074,13.145,19.68,13.145,31.639C-1949.316,3361.816-1968.832,3383.101-1993.064,3383.101L-1993.064,3383.101z
		 M-1562.376,3509.302l-47.236-47.281c-19.717,19.631-43.396,29.482-71.291,29.482c-27.67,0-51.299-9.778-70.791-29.257
		c-19.717-19.706-29.5-43.372-29.5-71.049c0-27.426,9.783-51.116,29.5-71.023c19.366-19.681,42.972-29.456,70.791-29.456
		c27.468,0,51.147,9.775,71.066,29.456l47.335-47.281c-27.343-26.199-67.805-48.812-118.804-48.812l0.201-0.777
		c-45.855,0-85.189,16.421-118.101,49.162c-32.712,33.042-49.067,72.503-49.067,118.531c0,46.104,16.355,85.564,49.067,118.305
		c32.636,32.34,71.969,48.562,118.101,48.686C-1629.605,3557.988-1589.419,3536.128-1562.376,3509.302L-1562.376,3509.302z
		 M-1533.655,3226.161v329.796h66.124V3423.89h110.4v132.067h66.124v-329.796h-66.124v132.094h-110.4v-132.094H-1533.655z"/>
	<path fill="#FFFFFF" d="M-2687.094,3643.101c6.598,15.569,5.168,39.461-4.34,71.649c-6.096,21.385-16.381,44.727-30.905,70.072
		c-9.783,17.147-18.939,32.313-27.518,45.526c-8.604,13.186-19.09,27.101-31.507,41.767c-12.417,14.64-25.085,27.101-38.029,37.405
		c-19.792,16.094-40.388,27.3-61.785,33.644c-5.795,1.854-10.234,3.157-13.27,3.961c-3.036,0.776-7.325,1.504-12.869,2.181
		c-5.544,0.651-10.16,0.049-13.872-1.779c-3.688-1.855-6.723-4.889-9.105-9.126c-5.269-9.478-7.651-21.761-7.125-36.804
		c-4.489,6.344-8.704,11.732-12.667,16.221c-4.24,4.764-9.457,9.377-15.653,13.864c-6.196,4.487-12.818,8.173-19.817,11.08
		c-6.974,2.909-13.923,3.56-20.796,1.98c-6.848-1.578-12.141-5.941-15.829-13.061c-5.543-9.753-8.58-21.108-9.106-34.045
		c-9.256,7.921-18.613,15.692-28.12,23.365c-3.437,2.632-6.748,2.231-9.909-1.203c-2.634-2.884-2.383-5.542,0.778-7.897
		c15.328-12.159,27.995-22.563,38.029-31.288c1.581-15.042,6.999-35.499,16.255-61.346c14.524-41.968,34.065-76.94,58.624-104.919
		c0.251-0.249,0.376-0.375,0.376-0.375c7.4-8.725,14.875-11.633,22.401-8.725c7.526,2.908,11.289,10.305,11.289,22.163
		c0,7.144-1.53,15.316-4.565,24.542c-3.036,9.252-5.945,16.646-8.705,22.188c-2.784,5.54-6.672,12.909-11.689,22.161
		c-17.158,31.412-40.813,61.096-70.916,89.073c-0.526,5.792-0.526,10.806,0,15.042c1.33,19.003,6.748,29.558,16.256,31.663
		c5.543,1.054,12.944-1.053,22.175-6.342c10.837-6.067,21.397-17.149,31.683-33.243c5.293-8.173,10.712-17.424,16.255-27.703
		c4.741-16.369,14.524-38.006,29.299-64.931c1.581-3.159,4.29-4.036,8.128-2.583c3.813,1.454,5.067,3.911,3.763,7.321
		c-11.891,29.558-21.925,52.271-30.103,68.09c-1.054,3.435-1.73,6.344-1.982,8.726c-1.581,7.921-2.508,15.091-2.784,21.561
		c-0.25,6.467,0.802,13.662,3.186,21.584c0.777,1.854,1.58,3.435,2.358,4.738c0.802,1.328,1.855,2.457,3.186,3.385
		c1.304,0.901,2.357,1.705,3.16,2.357c0.803,0.676,2.057,1.001,3.763,1.001c1.706,0,2.959,0.052,3.763,0.201
		c0.802,0.126,2.232-0.075,4.364-0.603c2.107-0.526,3.487-0.852,4.139-1.003c0.678-0.124,2.333-0.576,4.967-1.378
		c2.635-0.777,4.215-1.305,4.741-1.579c41.993-12.134,81.201-44.324,117.649-96.595c17.159-24.793,31.557-47.834,43.172-69.067
		c11.614-21.235,20.068-43.097,25.361-65.509c1.305-6.066,2.358-11.432,3.161-16.045c0.803-4.612,1.254-10.027,1.38-16.219
		c0.125-6.219-0.452-11.558-1.781-16.047c-1.304-4.486-3.813-8.773-7.525-12.859c-3.688-4.086-8.454-7.195-14.248-9.301
		c-20.344-6.594-43.849,1.854-70.515,25.346c-1.856,1.83-3.964,2.305-6.347,1.378c-2.358-0.928-3.813-2.457-4.34-4.563
		c-0.526-2.105,0-4.086,1.581-5.94c25.085-22.161,47.913-32.591,68.533-31.263c9.507,0.803,18.287,3.635,26.34,8.499
		C-2696.652,3628.385-2690.782,3634.928-2687.094,3643.101L-2687.094,3643.101z M-2997.222,3809.767
		c-9.256,23.74-15.201,42.619-17.835,56.607c14.8-14.516,27.066-28.78,36.85-42.769c11.866-17.149,22.05-34.697,30.479-52.647
		c3.713-7.646,7.149-17.147,10.31-28.505c2.384-8.699,2.635-15.819,0.804-21.359c-1.33-4.487-4.365-3.961-9.131,1.579
		c-0.25,0.25-0.527,0.527-0.778,0.776c0,0.277-0.125,0.403-0.401,0.403C-2967.521,3747.341-2984.303,3775.972-2997.222,3809.767
		L-2997.222,3809.767z M-2557.555,3814.103c2.634-0.526,4.741,0.151,6.321,1.98c1.581,1.856,2.107,3.911,1.581,6.143
		c-0.526,2.258-1.982,3.636-4.34,4.162c-25.611,4.487-44.902,5.014-57.846,1.579c-1.304-0.251-2.634-0.651-3.963-1.179
		c-1.054,7.371-4.214,14.365-9.482,20.984c-8.453,10.279-20.218,17.724-35.27,22.362c-15.051,4.612-28.898,4.537-41.591-0.201
		c-10.561-4.236-18.011-11.683-22.376-22.362c-4.365-10.703-4.415-21.31-0.201-31.863c4.767-12.41,13.02-21.586,24.759-27.527
		c11.765-5.941,24.884-9.176,39.409-9.702c2.634-0.25,4.49,0.678,5.544,2.784c1.053,2.105,1.053,4.285,0,6.518
		c-1.054,2.255-2.91,3.384-5.544,3.384c-24.81,1.053-41.44,9.226-49.895,24.544c-3.712,5.791-5.217,12.184-4.565,19.178
		c0.652,6.996,3.638,12.887,8.905,17.625c5.017,4.763,11.489,7.396,19.416,7.922c7.927,0.526,15.452-0.401,22.576-2.782
		c7.125-2.357,13.597-5.54,19.416-9.503c4.491-2.882,8.504-6.994,12.066-12.259c3.587-5.289,5.092-10.027,4.565-14.264
		c-9.231-4.738-14.399-9.503-15.452-14.241c-0.527-2.381,0.075-4.487,1.78-6.342c1.731-1.831,3.763-2.357,6.146-1.58
		c7.651,2.106,13.195,5.941,16.631,11.482c5.82,2.909,11.489,4.764,17.033,5.541
		C-2589.79,3817.814-2574.989,3817.011-2557.555,3814.103L-2557.555,3814.103z M-2293.759,3820.046
		c2.107-1.58,4.34-1.906,6.723-0.979c2.383,0.928,3.838,2.383,4.365,4.338c0.527,1.98-0.125,4.036-1.981,6.143
		c-0.527,0.526-3.161,2.832-7.927,6.944c-4.742,4.086-7.978,6.794-9.708,8.097c-1.706,1.33-4.741,3.56-9.105,6.745
		c-4.365,3.158-7.927,5.39-10.687,6.719c-2.784,1.328-6.146,2.781-10.109,4.361c-3.963,1.579-7.651,2.507-11.088,2.758
		c-8.98,1.053-15.452-0.728-19.416-5.341c-3.963-4.612-5.794-11.405-5.543-20.382c0-0.275,0.15-1.527,0.401-3.76
		c0.275-2.257,0.401-4.086,0.401-5.54c0-1.455-0.401-2.433-1.204-2.983c-2.358-2.357-8.956-1.956-19.792,1.203
		c-9.507,2.381-21.523,8.573-36.047,18.603c-1.329,0.802-5.469,4.034-12.467,9.7c-6.999,5.666-13.22,9.904-18.613,12.662
		c-5.418,2.782-10.51,3.885-15.251,3.358c-1.054,0-2.132-0.375-3.186-1.179c-1.053,0.252-2.107,0.126-3.161-0.4
		c-8.98-4.212-10.436-12.936-4.365-26.123c0-0.275,1.581-3.034,4.766-8.323c3.161-5.265,4.892-9.226,5.142-11.858
		c0.276-3.96-1.254-6.017-4.565-6.142c-3.286-0.126-6.648,0.602-10.084,2.182c-9.507,2.632-19.617,7.521-30.303,14.64
		c-10.686,7.12-19.014,13.263-24.959,18.402c-5.945,5.164-14.199,12.735-24.76,22.763c-0.777,0.804-1.705,1.33-2.759,1.579
		c-2.383,1.857-4.967,2.057-7.726,0.603c-2.784-1.454-3.638-3.761-2.583-6.92c10.31-26.399,22.326-52.271,36.047-77.591
		c1.329-2.106,3.11-3.159,5.343-3.159c2.258,0,4.039,1.053,5.344,3.159c1.329,2.105,1.455,4.212,0.401,6.342
		c-8.454,15.82-16.507,32.19-24.157,49.088c26.941-23.767,50.446-38.006,70.514-42.77c6.848-1.58,13.27-1.253,19.19,1.003
		c5.945,2.231,8.93,6.794,8.93,13.639c0,1.854-1.455,5.892-4.365,12.083c-2.91,6.193-5.418,11.883-7.525,17.022
		s-2.508,8.248-1.179,9.301c1.304,0,2.709-0.201,4.139-0.602c1.455-0.376,2.985-1.054,4.565-1.98
		c1.581-0.901,2.96-1.779,4.165-2.557c1.179-0.802,2.558-1.854,4.164-3.185c1.581-1.303,2.634-2.106,3.161-2.355
		c16.381-11.357,25.612-17.7,27.719-19.004c23.505-14.516,42.269-19.932,56.241-16.246c4.766,1.33,7.877,3.837,9.307,7.522
		c1.455,3.71,1.856,7.471,1.204,11.28c-0.652,3.837-0.803,7.672-0.401,11.482c0.401,3.836,2.057,6.544,4.942,8.123
		c1.605,1.328,3.763,1.703,6.547,1.179c2.784-0.526,5.343-1.104,7.726-1.78c2.383-0.652,5.217-1.98,8.504-3.961
		c3.311-1.957,6.221-3.812,8.729-5.541c2.509-1.705,5.268-3.811,8.304-6.317c3.035-2.507,5.543-4.612,7.525-6.344
		c1.981-1.703,4.039-3.56,6.146-5.54C-2296.017,3822.226-2294.562,3820.848-2293.759,3820.046L-2293.759,3820.046z
		 M-2154.738,3815.708c1.856-1.854,3.963-2.381,6.347-1.605c2.358,0.804,3.813,2.258,4.34,4.363c0.526,2.106,0,4.236-1.58,6.342
		c-29.827,30.085-66.802,44.6-110.901,43.547c-4.215-0.275-8.504-0.727-12.869-1.404c-4.365-0.65-8.905-1.779-13.672-3.358
		c-4.741-1.58-8.654-3.686-11.689-6.318c-3.036-2.656-5.394-5.94-7.125-9.901c-1.706-3.963-1.655-8.576,0.201-13.865
		c3.437-11.606,11.689-21.233,24.759-28.905c13.069-7.646,26.866-12.785,41.391-15.418c3.963-0.802,8.253-1.202,12.868-1.202
		c4.616,0,9.433,0.475,14.45,1.403c5.017,0.901,8.855,3.034,11.489,6.316c2.659,3.311,3.311,7.597,1.982,12.861
		c-1.054,4.765-3.763,9.251-8.103,13.464c-4.365,4.235-8.93,7.521-13.672,9.901c-4.766,2.382-10.761,4.613-18.036,6.719
		c-7.25,2.132-12.919,3.56-17.033,4.362c-4.089,0.803-9.156,1.705-15.227,2.783c-2.659,0.526-4.766-0.201-6.347-2.182
		c-1.58-1.98-2.107-4.086-1.58-6.342c0.527-2.231,1.981-3.486,4.34-3.762c3.712-0.777,8.604-1.904,14.674-3.358
		c6.071-1.455,13.446-3.51,22.175-6.142c8.705-2.633,15.653-5.867,20.796-9.703c5.142-3.811,6.798-7.572,4.941-11.281
		c-2.634-4.738-13.596-4.613-32.861,0.4c-14.524,3.961-26.54,9.904-36.047,17.825c-3.186,2.357-5.745,4.938-7.726,7.722
		c-1.981,2.759-3.361,5.591-4.164,8.498c-0.803,2.908-0.326,5.616,1.379,8.123c1.731,2.507,4.691,4.537,8.931,6.117
		c8.177,3.185,20.72,4.237,37.627,3.185C-2207.141,3852.786-2178.493,3839.7-2154.738,3815.708L-2154.738,3815.708z
		 M-1985.99,3820.848c2.107-1.58,4.34-1.907,6.723-1.003c2.384,0.927,3.838,2.381,4.365,4.361s-0.126,4.036-1.981,6.143
		c-0.527,0.526-1.456,1.304-2.785,2.381c-8.178,6.845-14.775,12.186-19.792,16.021s-11.814,7.798-20.395,11.884
		c-8.603,4.086-16.455,5.991-23.579,5.74c-5.544-0.275-9.583-1.98-12.092-5.164c-2.508-3.158-3.688-6.443-3.562-9.877
		c0.15-3.435,0.477-8.048,1.003-13.865c0.527-5.815,0.652-9.901,0.401-12.259c-0.276-2.382-0.928-4.162-1.982-5.364
		c-1.053-1.179-2.709-1.63-4.967-1.379c-2.232,0.275-4.089,0.65-5.543,1.178c-1.455,0.552-3.362,1.329-5.745,2.383
		c-0.778,0.275-1.455,0.526-1.982,0.801c-8.453,3.435-19.667,9.502-33.664,18.201c-19.542,12.135-35.37,23.365-47.536,33.644
		c0,0-0.527,0.275-1.581,0.802c-1.832,2.633-4.415,3.234-7.726,1.781c-3.286-1.454-4.415-3.886-3.362-7.321
		c8.705-25.872,18.889-51.719,30.503-77.591c1.857-3.961,4.616-4.765,8.329-2.381c3.161,2.381,4.089,5.289,2.759,8.723
		c-7.927,17.676-15.302,35.75-22.175,54.228c8.98-6.594,19.015-13.338,30.102-20.183c0.527-0.551,2.584-1.931,6.146-4.16
		c3.562-2.258,5.87-3.762,6.923-4.563c1.054-0.778,3.312-2.182,6.723-4.162c3.437-1.98,6.021-3.359,7.727-4.137
		c1.731-0.802,4.089-1.98,7.125-3.586c3.06-1.579,5.619-2.682,7.726-3.358c2.132-0.652,4.565-1.254,7.35-1.78
		c2.76-0.527,5.343-0.928,7.701-1.179c6.623-0.526,11.489,0.927,14.675,4.363c3.161,3.408,4.691,7.696,4.541,12.859
		c-0.126,5.14-0.326,10.354-0.577,15.619c0,1.605-0.151,2.782-0.401,3.56c-0.276,6.093,0.652,9.652,2.759,10.706
		c2.133,1.053,6.071,0.526,11.891-1.579C-2020.055,3847.372-2004.753,3837.193-1985.99,3820.848L-1985.99,3820.848z
		 M-1948.763,3699.308c7.651,14.266,7.4,28.254-0.803,41.967c-1.58,2.105-3.487,3.159-5.744,3.159c-2.233,0-4.015-1.054-5.344-3.159
		c-1.305-2.105-1.305-4.212,0-6.342c3.713-6.594,4.892-13.588,3.562-20.959l0,0c-3.437,0-5.945-1.128-7.524-3.384
		c-1.581-2.231-2.233-4.814-1.982-7.722c0.276-1.053,0.401-1.705,0.401-1.98c0-1.053,0.652-1.957,1.981-2.758
		c1.581-2.106,3.964-3.159,7.124-3.159c1.856,0,3.563,0.376,5.168,1.179C-1950.343,3696.676-1949.29,3697.729-1948.763,3699.308
		L-1948.763,3699.308z M-1833.498,3817.689c2.635-0.802,4.741-0.275,6.321,1.579c1.605,1.831,2.183,3.961,1.807,6.318
		c-0.401,2.381-1.932,3.961-4.565,4.763c-19.817,5.265-34.065,9.501-42.771,12.66c2.358,2.632,3.964,4.363,4.742,5.139
		c4.238,5.016,6.069,10.179,5.543,15.444c-0.527,5.288-2.308,10.027-5.343,14.265c-3.035,4.212-7.2,8.247-12.468,12.059
		c-5.293,3.836-10.436,7.069-15.452,9.701c-5.018,2.633-9.783,4.765-14.273,6.344c-18.739,6.316-32.084,6.594-39.985,0.776
		c-8.454-6.066-7.4-16.094,3.16-30.084c11.614-15.292,28.522-27.979,50.697-38.006c-2.91-2.356-5.018-4.212-6.347-5.54
		c-10.285-10.279-16.23-18.727-17.811-25.322c-1.33-5.539-0.677-10.828,1.982-15.842c2.633-5.015,6.521-9.227,11.689-12.66
		c5.142-3.437,10.359-6.269,15.628-8.525c5.292-2.23,10.436-4.011,15.452-5.34c2.635-0.526,4.766,0.126,6.347,1.98
		c1.58,1.855,2.106,3.886,1.58,6.143c-0.526,2.232-1.982,3.76-4.365,4.563c-13.194,2.882-23.354,7.896-30.503,15.041
		c-2.106,2.106-3.563,4.086-4.34,5.917c-0.803,1.854-0.928,3.76-0.401,5.741c0.526,1.98,1.329,3.835,2.383,5.54
		c1.055,1.729,2.509,3.635,4.34,5.74c3.187,3.963,8.98,9.652,17.435,17.023C-1871.928,3828.895-1855.421,3823.755-1833.498,3817.689
		L-1833.498,3817.689z M-1877.472,3857.274c-1.328-2.907-3.837-6.093-7.525-9.501c-20.846,8.699-36.975,19.654-48.313,32.841
		c-2.106,2.383-3.763,4.413-4.967,6.142c-1.179,1.705-2.107,3.561-2.76,5.541c-0.651,1.982-0.276,3.436,1.18,4.363
		c1.455,0.901,4.038,1.252,7.726,0.978c5.293,0,12.142-1.58,20.595-4.739c3.161-1.328,6.271-2.656,9.307-3.96
		c3.035-1.329,6.598-3.235,10.712-5.742c4.089-2.507,7.249-5.014,9.507-7.521c2.233-2.507,4.14-5.414,5.72-8.725
		C-1874.687,3863.667-1875.088,3860.433-1877.472,3857.274L-1877.472,3857.274z M-1368.495,3686.245
		c12.945,10.305,21.323,23.365,25.161,39.187c3.838,15.843,3.361,31.688-1.38,47.507c-14.273,54.903-64.318,99.753-150.135,134.6
		c-37.753,15.043-73.148,23.617-106.135,25.723c-0.276,0.526-0.526,1.203-0.803,1.98c-0.276,0.802-0.527,1.454-0.803,1.98
		c-0.777,2.381-2.358,3.837-4.741,4.363s-4.415,0-6.145-1.58c-1.706-1.604-2.183-3.56-1.38-5.942
		c-36.976,0-59.276-8.849-66.953-26.524c-2.106-6.868-2.307-13.336-0.576-19.402c1.705-6.067,5.418-11.935,11.088-17.626
		c5.669-5.666,11.338-10.402,17.032-14.239c5.67-3.835,11.289-7.07,16.833-9.702c18.738-8.699,40.136-15.567,64.167-20.582
		c22.702-53.048,48.59-105.044,77.639-155.961c-0.276,0-0.677,0.05-1.204,0.202c-0.527,0.125-1.054,0.199-1.58,0.199
		c-34.066,4.212-65.748,13.188-95.048,26.9c-0.803,0.275-1.73,0.677-2.784,1.203c-5.544,2.357-10.035,4.487-13.471,6.318
		c-3.437,1.854-7.777,4.486-13.069,7.921c-5.269,3.437-9.382,7.07-12.267,10.881c-2.91,3.835-4.365,7.722-4.365,11.683
		c0,2.633-1.129,4.487-3.361,5.541c-2.258,1.053-4.439,1.053-6.548,0c-2.106-1.054-3.16-2.908-3.16-5.541
		c0-5.014,1.505-9.901,4.54-14.641c3.062-4.764,6.347-8.774,9.909-12.083c3.562-3.284,8.378-6.794,14.475-10.479
		c6.069-3.686,10.887-6.343,14.448-7.922c3.563-1.58,8.128-3.686,13.672-6.344c35.119-15.568,71.016-24.793,107.74-27.701
		c0.527-0.777,1.38-2.308,2.559-4.539c1.204-2.256,2.184-3.91,2.985-4.964c1.581-2.105,3.487-3.159,5.744-3.159
		c2.232,0,4.015,0.979,5.344,2.96c1.304,1.98,1.304,4.16,0,6.543c-0.276,0.249-0.526,0.65-0.803,1.177
		c-0.251,0.527-0.401,0.93-0.401,1.205c0,0,0.15,0,0.401,0C-1429.626,3654.307-1395.16,3664.612-1368.495,3686.245
		L-1368.495,3686.245z M-1638.611,3919.022c8.429,1.579,17.811,2.381,28.121,2.381c9.507-27.2,19.917-54.251,31.28-81.15
		c-21.121,4.737-39.608,11.206-55.463,19.379c-17.158,8.724-28.372,18.753-33.664,30.084c-2.107,3.435-2.71,6.667-1.781,9.702
		c0.928,3.033,2.308,5.614,4.164,7.721c1.856,2.105,4.565,3.962,8.127,5.54c3.563,1.579,6.799,2.834,9.709,3.761
		C-1645.234,3917.366-1642.048,3918.22-1638.611,3919.022L-1638.611,3919.022z M-1353.819,3749.198
		c0.776-12.662-1.33-23.893-6.347-33.645c-5.017-9.778-11.815-17.625-20.395-23.566s-18.688-10.756-30.303-14.441
		c-11.614-3.709-23.179-6.216-34.668-7.521c-11.488-1.328-23.027-1.729-34.643-1.202c-29.048,50.691-55.062,102.135-78.04,154.405
		c24.032-3.961,48.314-5.815,72.872-5.54c2.659,0,4.491,1.053,5.545,3.159c1.053,2.105,1.053,4.212,0,6.317
		c-1.054,2.131-2.886,3.184-5.545,3.184c-27.468,0-53.606,2.231-78.415,6.719c-11.891,27.451-22.853,55.43-32.888,83.935
		c39.61-2.382,84.236-16.497,133.881-42.369C-1393.052,3841.955-1356.729,3798.811-1353.819,3749.198L-1353.819,3749.198z
		 M-1161.717,3813.327c1.054-1.33,2.309-2.057,3.763-2.182c1.455-0.126,2.709,0.125,3.763,0.801c1.055,0.652,1.907,1.58,2.559,2.759
		c0.678,1.179,0.929,2.431,0.803,3.761c-0.125,1.328-0.728,2.633-1.78,3.961c-5.018,5.289-8.98,9.302-11.892,12.084
		c-2.909,2.758-7.048,6.392-12.467,10.881c-5.418,4.486-10.762,7.646-16.055,9.501c-5.268,1.83-10.409,2.507-15.427,1.979
		c-13.747-1.328-21.147-11.357-22.2-30.084c-16.632,14.24-39.609,25.998-68.909,35.224c-5.293,1.854-10.762,3.309-16.432,4.362
		c-5.693,1.053-11.965,1.705-18.838,1.98c-6.848,0.251-12.994-0.928-18.413-3.561c-5.418-2.656-9.181-6.617-11.288-11.882
		c-2.107-3.961-2.508-8.048-1.179-12.285c1.305-4.212,3.16-8.173,5.544-11.858c2.384-3.709,5.544-7.319,9.508-10.904
		c3.963-3.561,7.65-6.518,11.087-8.9c3.437-2.382,6.874-4.488,10.31-6.343c8.178-4.738,17.158-8.499,26.917-11.281
		c9.783-2.759,20.067-3.886,30.904-3.358c10.813,0.526,19.793,3.56,26.941,9.1c2.107,1.604,3.035,3.636,2.76,6.143
		c-0.251,2.507-1.254,4.286-2.96,5.339c-1.73,1.053-3.763,0.927-6.146-0.375c-6.071-4.489-13.722-6.946-22.979-7.347
		c-9.231-0.375-17.961,0.678-26.139,3.185s-15.854,5.741-22.978,9.702c-9.508,5.266-17.561,12.008-24.157,20.181
		c-8.453,11.081-6.473,17.8,5.945,20.183c12.667,2.632,30.628-0.652,53.857-9.904c26.942-10.805,46.608-23.339,59.025-37.604
		c1.58-1.831,3.838-2.155,6.724-0.978c2.909,1.179,4.363,3.109,4.363,5.742c-0.526,3.684-0.727,7.119-0.602,10.278
		c0.15,3.183,0.527,6.542,1.204,10.104c0.652,3.56,1.832,6.192,3.563,7.921c1.706,1.705,4.014,2.958,6.924,3.76
		c2.909,0.777,6.598,0,11.087-2.381C-1186.276,3837.068-1175.188,3827.842-1161.717,3813.327L-1161.717,3813.327z
		 M-1036.167,3820.447c2.107-1.579,4.365-1.906,6.748-0.979c2.358,0.903,3.813,2.357,4.34,4.337c0.527,1.98-0.125,3.911-1.981,5.742
		c-28.246,22.713-48.966,41.164-62.186,55.43c-8.705,23.214-22.051,61.345-39.986,114.394c-1.329,3.711-3.838,5.215-7.551,4.563
		c-3.688-0.676-5.394-2.707-5.142-6.142c-0.252-0.802-0.402-1.179-0.402-1.179c-4.214-23.489-4.489-41.715-0.777-54.627
		c1.58-5.29,4.215-11.03,7.927-17.223c3.688-6.218,6.648-10.906,8.905-14.065c2.232-3.159,5.995-8.173,11.288-15.041
		c4.215-5.265,9.106-11.081,14.649-17.425c5.294-13.438,10.712-26.898,16.255-40.362c-27.468,27.177-51.9,36.401-73.298,27.702
		c-5.543-2.105-9.105-6.142-10.687-12.057c-1.58-5.943-1.33-12.561,0.803-19.807c2.107-7.244,4.341-13.788,6.724-19.605
		c2.383-5.791,4.892-10.931,7.524-15.418c0.803-1.604,1.856-2.582,3.161-2.983c1.33-0.401,2.584-0.401,3.763,0
		c1.204,0.401,2.258,1.053,3.186,1.98c0.929,0.929,1.506,2.056,1.782,3.36c0.25,1.328,0,2.656-0.803,3.961
		c-3.965,7.119-7.4,15.443-10.286,24.944c-0.803,2.908-1.329,4.738-1.58,5.54c-0.275,0.803-0.677,2.508-1.203,5.14
		c-0.527,2.658-0.652,4.487-0.402,5.54c0.276,1.079,0.677,2.382,1.204,3.961c0.527,1.58,1.581,2.708,3.161,3.387
		c1.58,0.65,3.688,0.977,6.347,0.977c24.559,0.526,50.044-17.825,76.435-55.029c2.106-2.907,4.815-3.635,8.128-2.182
		c3.285,1.454,4.539,3.762,3.762,6.944c0.251,1.305,0.126,2.633-0.401,3.963c-7.123,14.766-13.997,30.459-20.595,47.105
		C-1067.322,3846.042-1053.6,3834.435-1036.167,3820.447L-1036.167,3820.447z M-1132.82,3969.687
		c6.874-20.055,13.07-37.88,18.64-53.447c-4.491,6.066-8.078,11.607-10.712,16.621
		C-1130.687,3943.414-1133.346,3955.698-1132.82,3969.687L-1132.82,3969.687z"/>
	<path fill="#FFFFFF" d="M-1523.997,2666.024c0,54.526-15.478,109.506-46.383,164.936c-30.904,55.43-72.746,104.065-125.476,145.856
		c-49.116,39.987-114.59,72.252-196.417,96.795c-81.828,24.519-166.39,38.157-253.686,40.89
		c-87.296,2.708-171.407-6.368-252.332-27.276c-80.925-20.884-145.946-57.711-195.037-110.408
		c-40.011-43.622-65.472-93.135-76.384-148.564c-55.589-282.413,324.928-477.383,521.57-578.841
		c-200.004,108.277-544.448,297.731-494.303,573.376c9.106,49.989,31.833,94.965,68.207,134.951
		c36.373,39.986,83.207,70.874,140.477,92.684c57.294,21.812,119.581,32.717,186.859,32.717c65.472,0,129.59-10.454,192.328-31.339
		c62.738-20.908,119.556-49.989,170.479-87.243s91.837-81.326,122.767-132.219c30.905-50.893,46.357-106.32,46.357-166.313
		c0-56.333-13.62-106.323-40.914-149.944c-121.938-194.994-306.415-269.703-491.016-398.011
		c-41.817-29.081-80.021-61.797-114.563-98.149c-87.297-87.243-130.945-179.024-130.945-275.344
		c0-50.165,11.89-99.954,35.671-149.392c-59.25-41.441-210.915-107.425-244.505-124.122c-5.97,8.724-14.349,15.869-24.733,20.758
		c-13.295,6.243-27.117,7.27-39.133,4.563c-12.066-2.983-22.075-9.802-27.192-20.657c-4.992-10.605-3.988-22.964,1.479-33.995
		c5.569-10.956,15.202-20.908,28.497-27.151c13.17-6.192,27.343-7.446,39.058-4.588c12.141,2.758,22.15,9.928,27.142,20.532
		c3.563,7.597,4.29,15.819,2.107,23.792c26.766,11.732,127.308,54.652,158.739,44.976c0,0-68.558-89.876-133.93-109.456l0,0
		c-3.487,2.908-7.425,5.816-11.665,7.822c-19.642,9.226-41.165,3.71-48.464-11.783c-7.275-15.443,2.207-35.549,21.849-44.775
		c19.266-9.076,40.914-3.585,48.164,11.858c4.741,10.053,2.409,21.61-4.941,31.337c38.707,19.33,139.423,68.391,156.631,57.084
		c0,0-76.786-87.519-113.686-122.492c6.146-5.139,10.913-11.105,14.098-17.9c5.343-10.754,6.196-22.738,1.054-33.669
		c-5.093-10.831-14.926-17.925-26.666-20.758c-12.316-3.083-26.264-1.629-39.484,4.588c-13.094,6.143-23.354,16.07-28.371,27.301
		c-5.82,11.106-6.623,23.19-1.531,34.02c5.142,10.931,14.925,17.9,27.142,20.407c11.84,3.259,26.039,1.68,39.107-4.463
		c4.867-2.281,9.583-5.364,13.672-8.499c44.602,27.853,159.893,84.561,207.153,79.472c0,0-50.723-126.955-126.68-165.136
		c11.514-10.129,16.155-24.82,10.36-37.129c-7.299-15.493-29.199-20.733-48.314-11.758c-19.542,9.175-29.299,29.332-22.025,44.825
		c7.426,15.769,29.149,21.009,48.665,11.833c3.989-1.88,7.978-4.412,11.188-7.496c20.118,14.44,154.022,106.297,184.25,89.024
		c0,0-66.701-112.514-95.273-156.487c-2.91,2.031-5.795,3.786-9.156,5.365c-12.768,5.992-26.917,7.044-39.158,4.336
		c-11.589-3.158-22-9.852-27.117-20.707c-5.017-10.68-3.637-23.165,1.33-34.07c5.77-11.056,15.603-21.285,28.372-27.276
		c13.521-6.368,27.794-7.471,39.383-4.563c12.342,2.783,21.899,10.103,26.941,20.783c5.092,10.855,4.541,22.688-1.179,33.995
		c-4.264,8.323-10.285,16.07-19.265,22.062c37.427,42.77,144.114,149.217,175.22,125.726c0,0-20.57-118.531-58.172-192.362
		c-21.097,8.524-43.924,2.783-51.926-14.189c-8.178-17.424,2.634-40.288,24.659-50.642c21.849-10.278,46.006-3.835,54.209,13.563
		c8.378,17.825-2.333,39.987-24.182,50.266l-0.878,0.426c26.089,31.964,115.844,137.685,153.07,116.876
		c0,0-13.069-106.748-37.954-171.303c-10.661,3.635-21.774,4.162-31.507,1.455c-11.991-2.583-21.949-9.502-27.167-20.583
		c-4.992-10.63-3.988-22.688,1.605-33.719c4.691-11.231,15.251-21.259,28.271-27.376c13.446-6.318,27.368-7.822,39.584-4.538
		c11.614,2.958,21.749,9.778,26.766,20.407c5.193,11.081,3.989,23.265-1.204,33.92c-5.344,11.332-15.277,21.309-28.723,27.602
		c-2.007,0.953-4.365,1.855-6.422,2.583c26.641,51.494,89.704,165.412,116.169,154.958c0,0,13.947-138.086,1.756-199.909
		c-17.133,3.836-34.116-2.757-40.538-16.42c-7.852-16.697,2.659-38.357,23.254-48.035c20.896-9.827,44.175-4.036,52.026,12.661
		c7.877,16.722-2.433,38.507-23.304,48.31c-2.633,1.253-6.07,2.306-9.457,2.983c17.159,31.488,83.382,149.844,97.155,141.169
		c10.712-7.145,15.353-104.993,16.731-164.284c-7.726,1.028-15.577,1.003-22.827-0.878c-11.665-2.782-21.849-9.928-26.866-20.607
		c-5.117-10.856-4.039-23.09,1.079-34.17c5.243-11.031,15.327-20.958,28.873-27.326c13.019-6.118,27.317-7.647,38.981-4.563
		c12.242,2.908,22.125,10.003,27.219,20.858c5.042,10.68,4.264,22.964-1.432,33.919c-4.991,11.156-15.326,21.059-28.345,27.176
		c-3.839,1.805-7.953,3.234-11.79,4.463c6.246,64.781,20.118,176.718,40.487,168.219c20.694-8.549,43.622-117.553,54.986-176.542
		c-12.693,0.401-23.831-5.315-28.697-15.619c-7.149-15.242,2.458-34.596,21.322-43.471c18.863-8.85,39.685-3.811,46.834,11.432
		c7.174,15.192-2.107,34.646-20.972,43.521c-2.383,1.103-4.791,1.88-7.274,2.632c7.4,65.508,21.925,197.602,32.385,189.379
		c10.511-8.248,48.364-137.81,66.1-199.105c-6.823,0.702-13.12,0.301-18.789-1.254c-12.392-2.633-22.226-9.703-27.317-20.508
		c-5.168-10.98-4.34-23.039,1.58-34.195c4.917-11.181,15.453-21.084,28.12-27.025c13.321-6.267,27.218-7.847,39.686-4.838
		c11.589,2.908,21.473,9.953,26.64,20.934c5.067,10.805,4.215,22.889-0.902,33.744c-5.72,11.356-15.779,21.084-29.099,27.352
		c-5.318,2.507-10.737,4.437-16.381,5.44c-9.783,59.516-29.25,181.181-13.27,164.459c14.198-15.669,50.973-110.759,70.413-159.997
		c-4.791-2.232-8.604-6.067-11.013-11.181c-6.672-14.164,2.183-32.34,19.868-40.663c17.785-8.348,37.427-3.56,44.1,10.58
		c1.054,2.256,1.756,4.287,2.307,6.267c-0.251-6.167,1.479-12.585,4.415-18.401c5.268-10.78,15.201-21.059,28.371-27.251
		c13.396-6.292,27.694-7.42,39.435-4.613c12.166,2.833,21.949,10.079,26.991,20.758c5.092,10.856,4.39,22.864-1.153,34.171
		c-5.368,10.729-15.453,20.783-28.849,27.075c-13.17,6.192-27.318,7.546-38.932,4.813c-3.212-0.802-6.422-1.955-9.006-3.435
		c-17.184,78.695-64.52,283.291-71.819,336.138c-2.232,16.822-0.803,35.926,4.064,55.129
		c46.006,22.488,85.164,50.641,117.498,84.436c38.205,41.792,62.764,90.402,73.676,145.857
		c46.482,236.135-247.941,435.09-444.985,540.334c180.914-103.013,468.39-288.431,419.047-534.894
		c-9.983-49.989-33.188-94.965-69.535-134.952c-40.012-41.791-82.757-71.324-128.211-88.597
		c-45.479-17.273-91.385-24.543-137.768-21.811c-46.382,2.732-92.739,14.089-139.122,34.07
		c-46.383,20.005-89.554,46.354-129.565,79.07c-49.117,39.987-87.748,85.414-115.943,136.306s-42.293,101.784-42.293,152.676
		c0,56.332,13.194,106.322,39.56,149.943c26.364,43.622,54.108,79.974,83.207,109.055c25.461,25.446,53.657,49.964,84.562,73.605
		C-1900.599,2222.335-1523.997,2376.916-1523.997,2666.024L-1523.997,2666.024z M-2418.658,1530.729
		c26.039-36.678,57.821-69.896,95.374-99.679c13.922-11.031,28.422-21.409,43.473-31.187
		c171.532-126.077,366.018-155.584,509.63-95.091c3.763,0.075,13.747-13.388-30.077-32.917
		c-44.226-19.128-170.654-14.516-170.654-14.516c55.939-29.281,64.77-20.732,64.77-20.732
		c-31.382,0.351-43.172-27.928-41.014-28.956c1.404-0.652,47.235,26.875,83.609,12.284c37.051-14.039,51.173-55.756,54.76-58.614
		c3.638-3.509-14.098,43.421,15.026,47.082c28.974,3.811,44.325-29.006,44.325-29.006s-7.023,11.883-32.836,13.764
		c-24.91,1.88-18.764-86.166-18.764-86.166s-27.343,78.67-86.795,95.968c-59.478,17.6-92.313-110.057-91.535-113.241
		c1.328-3.058,31.005,93.762-43.824,141.119c-75.431,47.282-154.575-83.583-154.575-83.583s71.769,119.76-26.114,167.192
		c-97.757,47.382-180.237-65.658-180.237-65.658s5.645,11.005,14.851,29.256c8.955,18.226,60.254,101.734,4.365,132.796
		c-56.015,30.861-180.964-37.706-180.964-37.706s96.101,89.475,61.985,122.066c-34.065,32.34-107.992,17.524-106.136,14.415l0,0
		c0,0,74.001,37.706,113.611,7.371c39.308-30.811,24.031-79.372,24.031-79.372c15.352,10.63,21.824,46.354,21.824,46.354
		l77.563-53.098c0,0,13.947-2.256-33.865,41.917c-47.386,44.399-78.943,120.261-43.422,72.001
		C-2426.435,1540.03-2422.546,1535.366-2418.658,1530.729L-2418.658,1530.729z M-2629.123,1311.843
		c-5.719-4.914-9.558-7.697-11.012-6.745c-1.129,1.079,1.982,4.162,8.604,8.9c-2.559,1.905-5.469,3.785-8.705,5.315
		c-10.034,4.713-20.495,5.415-29.876,3.334c-8.955-2.256-16.33-7.622-20.168-15.794c-3.938-8.349-3.337-17.398,0.602-25.772
		c4.465-8.373,11.614-16.069,21.648-20.782c9.934-4.664,20.796-5.441,29.977-3.485c8.83,2.382,16.281,7.621,20.219,15.97
		c3.837,8.198,3.161,17.323-0.653,25.597C-2620.92,1303.394-2624.381,1307.831-2629.123,1311.843L-2629.123,1311.843z
		 M-2458.794,1158.163c-3.963-5.691-6.723-8.9-6.849-8.348c-0.677,0.326,1.857,3.936,6.171,8.975
		c-2.082,1.454-4.54,2.808-7.174,4.036c-9.757,4.588-20.017,5.49-29.349,3.209c-9.03-2.031-16.606-7.546-20.419-15.593
		c-3.738-7.998-3.136-17.298,1.053-25.546c3.713-8.349,11.389-16.045,21.147-20.633c10.284-4.838,20.945-5.766,30.227-3.51
		c9.081,2.005,16.331,7.621,20.068,15.593c3.813,8.073,3.537,17.274-0.727,25.521
		C-2447.782,1148.085-2452.473,1153.826-2458.794,1158.163L-2458.794,1158.163z M-2222.568,1035.822
		c-2.358-5.416-4.716-10.379-7.425-15.217c0,0,2.759,5.866,7.576,15.142c2.283-0.677,4.54-1.379,6.898-2.482
		c9.984-4.688,17.685-12.334,21.498-20.708c4.315-8.298,5.193-17.8,1.279-26.148c-3.737-7.922-11.614-13.237-20.77-15.267
		c-8.956-2.533-19.692-1.355-29.651,3.334c-10.034,4.713-17.585,12.134-21.548,20.732c-4.339,8.374-4.59,17.499-0.853,25.421
		c3.938,8.348,11.138,14.039,20.344,15.995C-2238.522,1038.154-2230.495,1038.053-2222.568,1035.822L-2222.568,1035.822z
		 M-1983.557,965.526c0.953-21.359,1.079-35.273,1.079-35.273s0.753,13.663,2.483,34.522c2.835-0.677,6.146-1.981,8.529-3.083
		c10.159-4.789,17.635-12.134,21.423-20.683c3.838-8.123,4.966-17.75,1.204-25.747c-3.913-8.323-11.966-13.387-20.696-15.669
		c-8.854-2.206-19.49-1.604-29.65,3.184c-10.084,4.738-17.635,12.686-21.949,21.084c-3.862,8.172-4.465,17.323-0.552,25.646
		c3.763,7.997,11.288,13.538,20.018,15.744C-1995.748,966.829-1989.501,966.804-1983.557,965.526L-1983.557,965.526z
		 M-1770.659,944.818c4.013-12.936,6.196-21.008,6.196-21.008s-1.655,8.023-3.663,20.632c3.136-1.002,6.773-2.005,10.009-3.535
		c10.285-4.814,17.761-12.56,21.499-20.708c4.113-8.398,4.966-17.725,1.179-25.771c-3.863-8.224-11.515-13.363-20.721-15.744
		c-8.705-2.407-19.416-1.58-29.701,3.234c-10.033,4.713-17.083,12.259-21.347,20.758c-4.19,8.674-4.741,17.674-0.879,25.897
		c3.788,8.047,11.163,13.513,20.42,15.644C-1782.649,945.62-1776.503,945.846-1770.659,944.818L-1770.659,944.818z
		 M-1705.037,963.019c-8.052,55.981-23.78,163.907-10.46,152.4c13.069-11.432,52.554-111.612,72.822-160.95
		c-5.143-3.259-9.156-8.047-11.916-13.889c-1.58-3.384-2.834-6.969-3.186-10.529c-0.376,11.231-8.88,23.59-22.074,29.808
		C-1688.28,963.796-1697.586,964.673-1705.037,963.019L-1705.037,963.019z M-1637.958,942.662c4.49-9.903,7.249-15.995,7.626-15.167
		c0.176,0.326-1.229,7.17-3.587,18.251c3.286,2.281,7.024,4.313,10.887,5.14c9.407,2.456,20.168,1.278,30.127-3.41
		c10.034-4.713,17.585-12.134,21.498-20.858c4.14-8.374,5.017-17.599,1.204-25.697c-3.763-8.022-11.438-13.186-20.67-15.619
		c-9.006-2.131-19.667-1.303-29.7,3.41c-9.96,4.688-17.61,12.46-21.925,20.858c-3.938,8.625-4.064,17.449-0.301,25.472
		C-1641.42,937.974-1640.116,940.506-1637.958,942.662L-1637.958,942.662z M-2728.033,1420.271
		c-9.306-2.207-19.893-0.953-29.851,3.735c-9.984,4.688-17.735,12.059-21.674,20.482c-3.989,8.423-4.917,17.724-1.104,25.772
		c3.838,8.173,11.614,13.438,20.645,15.719c8.855,2.081,19.617,1.078,29.601-3.61c9.959-4.688,17.535-12.309,21.924-20.582
		c3.938-8.399,4.415-17.549,0.577-25.722C-2711.703,1428.017-2719.052,1422.577-2728.033,1420.271L-2728.033,1420.271z
		 M-1728.742,1291.21c0,0-12.016-65.909,11.063-130.865c23.154-65.683,56.166-103.338,53.607-99.127
		C-1666.756,1065.304-1717.88,1207.952-1728.742,1291.21L-1728.742,1291.21z"/>
	<path fill="#FFFFFF" d="M-2846.686,1309.135h79.646v5.014h-77.137v2117.586h34.291v5.014h-39.308V1309.135H-2846.686z
		 M-1276.156,3431.736h41.115V1714.943h5.017v1721.806h-46.132V3431.736z M-1569.175,1309.135h339.151v145.782h-5.017v-140.768
		h-334.135V1309.135z"/>
</g>
</svg>
